<svg width="208" height="128" viewBox="0 0 208 128" fill="none" xmlns="http://www.w3.org/2000/svg">
<g clip-path="url(#clip0_48_2942)">
<path d="M193 0C196.978 0 200.793 1.58051 203.606 4.39355C206.419 7.2066 208 11.0218 208 15V113C208 116.978 206.419 120.793 203.606 123.606C200.793 126.419 196.978 128 193 128H15C11.0218 128 7.2066 126.419 4.39355 123.606C1.58051 120.793 0 116.978 0 113V15C0 11.0218 1.58051 7.2066 4.39355 4.39355C7.2066 1.58051 11.0218 0 15 0H193ZM131.5 30.002C131.538 30.0251 136.411 33.0161 138.75 35.752C141.098 38.4985 144 44.0014 144 50.001V71L122 71.001L154 99L186 71.001H164V54.251C164 48.5012 161 41.7517 152.25 35.752C143.5 29.7521 131.5 30.002 131.5 30.002ZM30 98H50V59L70 84L90 59V98H110V30H90L70 55L50 30H30V98Z" fill="white"/>
<path d="M178 16L182.453 25.5472L192 30L182.453 34.4528L178 44L173.547 34.4528L164 30L173.547 25.5472L178 16Z" fill="black"/>
<path d="M30 98V30H50L70 55L90 30H110V98H90V59L70 84L50 59V98H30Z" fill="black"/>
<path d="M187 71.0006L155 99L123 71.0006L145 71V50.0005C145 44.0006 142.098 38.4978 139.75 35.7514C137.402 33.0049 132.5 30.0015 132.5 30.0015C132.5 30.0015 144.5 29.7515 153.25 35.7514C162 41.7512 165 48.5011 165 54.251V71.0006H187Z" fill="black"/>
</g>
<defs>
<clipPath id="clip0_48_2942">
<rect width="208" height="128" fill="white"/>
</clipPath>
</defs>
</svg>
